<?xml version="1.0" standalone="no"?>
<!DOCTYPE svg PUBLIC "-//W3C//DTD SVG 20010904//EN"
 "http://www.w3.org/TR/2001/REC-SVG-20010904/DTD/svg10.dtd">
<svg version="1.0" xmlns="http://www.w3.org/2000/svg"
 width="500.000000pt" height="500.000000pt" viewBox="0 0 500.000000 500.000000"
 preserveAspectRatio="xMidYMid meet">

<g transform="translate(0.000000,500.000000) scale(0.100000,-0.100000)"
fill="#000000" stroke="none">
<path d="M2373 4043 c15 -2 37 -2 50 0 12 2 0 4 -28 4 -27 0 -38 -2 -22 -4z"/>
<path d="M2658 4043 c12 -2 30 -2 40 0 9 3 -1 5 -23 4 -22 0 -30 -2 -17 -4z"/>
<path d="M2288 4033 c6 -2 18 -2 25 0 6 3 1 5 -13 5 -14 0 -19 -2 -12 -5z"/>
<path d="M2758 4033 c6 -2 18 -2 25 0 6 3 1 5 -13 5 -14 0 -19 -2 -12 -5z"/>
<path d="M2228 4023 c7 -3 16 -2 19 1 4 3 -2 6 -13 5 -11 0 -14 -3 -6 -6z"/>
<path d="M2818 4023 c6 -2 18 -2 25 0 6 3 1 5 -13 5 -14 0 -19 -2 -12 -5z"/>
<path d="M2178 4013 c7 -3 16 -2 19 1 4 3 -2 6 -13 5 -11 0 -14 -3 -6 -6z"/>
<path d="M2868 4013 c6 -2 18 -2 25 0 6 3 1 5 -13 5 -14 0 -19 -2 -12 -5z"/>
<path d="M2130 4006 c0 -2 7 -7 16 -10 8 -3 12 -2 9 4 -6 10 -25 14 -25 6z"/>
<path d="M2918 4003 c7 -3 16 -2 19 1 4 3 -2 6 -13 5 -11 0 -14 -3 -6 -6z"/>
<path d="M2090 3996 c0 -2 7 -7 16 -10 8 -3 12 -2 9 4 -6 10 -25 14 -25 6z"/>
<path d="M2958 3993 c7 -3 16 -2 19 1 4 3 -2 6 -13 5 -11 0 -14 -3 -6 -6z"/>
<path d="M3005 3980 c27 -12 43 -12 25 0 -8 5 -22 9 -30 9 -10 0 -8 -3 5 -9z"/>
<path d="M3058 3963 c7 -3 16 -2 19 1 4 3 -2 6 -13 5 -11 0 -14 -3 -6 -6z"/>
<path d="M3180 3920 c8 -5 20 -10 25 -10 6 0 3 5 -5 10 -8 5 -19 10 -25 10 -5
0 -3 -5 5 -10z"/>
<path d="M1798 3884 c-38 -19 -68 -37 -68 -39 0 -5 139 62 149 71 14 13 -23
-2 -81 -32z"/>
<path d="M2380 3890 c-663 -83 -1162 -543 -1270 -1168 -32 -184 -22 -490 20
-632 12 -42 13 -61 1 -40 -19 33 -52 204 -60 314 -39 469 153 931 510 1231
119 99 183 141 337 217 67 34 122 65 122 69 0 15 -109 -19 -197 -63 -284 -142
-529 -387 -671 -673 -141 -284 -181 -581 -127 -957 4 -29 4 -30 -4 -8 -8 23
-9 23 -10 4 -1 -27 43 -198 65 -254 14 -36 15 -43 3 -52 -11 -8 -10 -8 5 -4
16 5 18 2 13 -21 -6 -30 1 -55 13 -48 4 3 11 -2 14 -11 4 -9 2 -13 -5 -8 -8 4
-7 0 0 -15 7 -11 16 -21 22 -21 6 0 7 -4 4 -10 -3 -5 -1 -10 5 -10 6 0 9 -4 6
-9 -4 -5 -2 -11 2 -13 5 -1 28 -31 51 -66 249 -370 633 -609 1083 -677 178
-27 427 -18 591 21 93 22 78 28 -24 10 -206 -38 -493 -39 -657 -1 -91 21 -205
56 -200 60 2 3 33 -4 68 -15 141 -41 240 -54 415 -54 196 0 304 16 461 69 366
122 657 373 828 713 20 39 35 72 32 72 -2 0 -24 -36 -49 -79 -183 -314 -529
-590 -825 -656 -59 -14 -141 -27 -182 -29 -41 -3 -61 -2 -45 0 200 33 438 133
590 247 160 120 303 295 391 481 24 51 44 100 44 107 0 8 -12 -11 -26 -41 -43
-93 -154 -251 -239 -339 -190 -198 -432 -331 -715 -393 -138 -31 -394 -30
-537 0 -421 91 -764 353 -951 727 -59 119 -137 367 -152 485 -22 173 -7 316
52 498 34 107 46 120 18 19 -70 -251 -65 -541 12 -777 117 -359 385 -651 730
-794 87 -36 235 -77 273 -75 11 1 -7 7 -41 14 -463 102 -832 462 -956 932 -30
112 -32 128 -32 313 l-1 195 43 125 c95 279 242 508 426 661 70 59 97 94 49
65 -22 -14 -20 -11 7 13 59 51 297 167 434 212 146 48 412 63 587 35 454 -74
834 -357 1039 -774 26 -54 57 -126 69 -162 28 -84 41 -105 41 -66 0 42 -53
193 -104 293 -188 373 -581 662 -1006 739 -130 24 -373 24 -500 1 -396 -73
-727 -302 -988 -683 -7 -10 -1 4 14 31 75 139 226 309 371 419 374 281 865
367 1324 233 492 -144 876 -524 1024 -1012 19 -63 41 -159 49 -212 9 -63 14
-83 15 -57 3 124 -66 364 -154 532 -75 144 -154 250 -270 367 -225 223 -510
375 -821 435 -125 24 -343 33 -454 20z m-1312 -1800 c0 -9 -3 -7 -8 5 -5 11
-8 29 -8 40 0 16 2 15 8 -5 4 -14 8 -32 8 -40z m48 -157 c-5 -5 -46 116 -45
131 0 6 11 -20 25 -58 13 -38 22 -71 20 -73z m24 -48 c0 -5 -5 -3 -10 5 -5 8
-10 20 -10 25 0 6 5 3 10 -5 5 -8 10 -19 10 -25z m124 -227 c48 -75 113 -156
195 -243 36 -39 20 -25 -36 30 -104 104 -181 211 -247 342 -50 100 -45 105 7
8 24 -44 60 -106 81 -137z m301 -338 c10 -11 16 -20 13 -20 -3 0 -13 9 -23 20
-10 11 -16 20 -13 20 3 0 13 -9 23 -20z m279 -113 c246 -120 510 -175 781
-165 82 4 113 3 85 -3 -79 -14 -328 -11 -425 6 -183 32 -376 102 -507 186 -43
27 -30 22 66 -24z m-124 -4 c0 -7 -39 17 -46 28 -3 6 5 3 20 -6 14 -10 26 -19
26 -22z m50 -29 c0 -2 -9 0 -20 6 -11 6 -20 13 -20 16 0 2 9 0 20 -6 11 -6 20
-13 20 -16z m136 -72 c-5 -4 -106 46 -106 53 0 3 25 -7 55 -22 30 -15 53 -29
51 -31z m44 -12 c8 -5 11 -10 5 -10 -5 0 -17 5 -25 10 -8 5 -10 10 -5 10 6 0
17 -5 25 -10z"/>
<path d="M1639 3792 c-147 -96 -279 -215 -377 -340 -57 -71 -29 -47 39 35 80
95 206 206 324 285 96 64 101 68 93 68 -3 0 -39 -22 -79 -48z"/>
<path d="M1860 3360 c0 -20 7 -20 403 -20 446 0 477 -4 573 -61 103 -62 172
-169 197 -304 9 -50 17 -71 28 -73 9 -2 19 3 21 10 8 21 -12 401 -22 426 -6
12 -21 27 -36 32 -15 6 -247 10 -595 10 -562 0 -569 0 -569 -20z"/>
<path d="M1120 3240 c-6 -11 -8 -20 -6 -20 3 0 10 9 16 20 6 11 8 20 6 20 -3
0 -10 -9 -16 -20z"/>
<path d="M2000 2510 l0 -520 210 0 210 0 0 270 0 270 100 0 c103 0 154 -13
193 -48 32 -29 66 -107 77 -178 6 -38 15 -73 20 -78 26 -26 30 14 30 325 0
303 -1 319 -18 319 -15 0 -22 -15 -35 -81 -20 -103 -56 -164 -116 -196 -38
-20 -59 -23 -148 -23 l-103 0 0 230 0 230 -210 0 -210 0 0 -520z"/>
<path d="M1011 2904 c0 -11 3 -14 6 -6 3 7 2 16 -1 19 -3 4 -6 -2 -5 -13z"/>
<path d="M991 2824 c0 -11 3 -14 6 -6 3 7 2 16 -1 19 -3 4 -6 -2 -5 -13z"/>
<path d="M982 2780 c0 -14 2 -19 5 -12 2 6 2 18 0 25 -3 6 -5 1 -5 -13z"/>
<path d="M972 2720 c0 -19 2 -27 5 -17 2 9 2 25 0 35 -3 9 -5 1 -5 -18z"/>
<path d="M992 2670 c0 -14 2 -19 5 -12 2 6 2 18 0 25 -3 6 -5 1 -5 -13z"/>
<path d="M963 2635 c0 -27 2 -38 4 -22 2 15 2 37 0 50 -2 12 -4 0 -4 -28z"/>
<path d="M984 2480 c0 -69 1 -97 3 -62 2 34 2 90 0 125 -2 34 -3 6 -3 -63z"/>
<path d="M1222 2570 c0 -19 2 -27 5 -17 2 9 2 25 0 35 -3 9 -5 1 -5 -18z"/>
<path d="M953 2510 c0 -36 2 -50 4 -32 2 17 2 47 0 65 -2 17 -4 3 -4 -33z"/>
<path d="M963 2380 c0 -30 2 -43 4 -27 2 15 2 39 0 55 -2 15 -4 2 -4 -28z"/>
<path d="M1223 2350 c0 -25 2 -35 4 -22 2 12 2 32 0 45 -2 12 -4 2 -4 -23z"/>
<path d="M972 2290 c0 -19 2 -27 5 -17 2 9 2 25 0 35 -3 9 -5 1 -5 -18z"/>
<path d="M991 2284 c0 -11 3 -14 6 -6 3 7 2 16 -1 19 -3 4 -6 -2 -5 -13z"/>
<path d="M1232 2260 c0 -14 2 -19 5 -12 2 6 2 18 0 25 -3 6 -5 1 -5 -13z"/>
<path d="M982 2230 c0 -14 2 -19 5 -12 2 6 2 18 0 25 -3 6 -5 1 -5 -13z"/>
<path d="M1241 2204 c0 -11 3 -14 6 -6 3 7 2 16 -1 19 -3 4 -6 -2 -5 -13z"/>
<path d="M1251 2164 c0 -11 3 -14 6 -6 3 7 2 16 -1 19 -3 4 -6 -2 -5 -13z"/>
<path d="M1261 2124 c0 -11 3 -14 6 -6 3 7 2 16 -1 19 -3 4 -6 -2 -5 -13z"/>
<path d="M1015 2109 c-4 -6 -5 -12 -2 -15 2 -3 7 2 10 11 7 17 1 20 -8 4z"/>
<path d="M1026 2073 c-6 -14 -5 -15 5 -6 7 7 10 15 7 18 -3 3 -9 -2 -12 -12z"/>
<path d="M1440 1746 c0 -2 8 -10 18 -17 15 -13 16 -12 3 4 -13 16 -21 21 -21
13z"/>
<path d="M1480 1696 c0 -2 8 -10 18 -17 15 -13 16 -12 3 4 -13 16 -21 21 -21
13z"/>
<path d="M1933 1673 c-56 -3 -73 -7 -73 -18 0 -13 50 -15 350 -15 287 0 350 2
350 13 0 11 -27 16 -107 20 -104 7 -377 6 -520 0z"/>
<path d="M1610 1566 c0 -2 8 -10 18 -17 15 -13 16 -12 3 4 -13 16 -21 21 -21
13z"/>
<path d="M2253 1213 c9 -2 25 -2 35 0 9 3 1 5 -18 5 -19 0 -27 -2 -17 -5z"/>
<path d="M2388 1203 c12 -2 32 -2 45 0 12 2 2 4 -23 4 -25 0 -35 -2 -22 -4z"/>
</g>
</svg>
